# xmcd
#
# Track frame offsets:
#	183
#	29198
#	52850
#
# Disc length: 1035 seconds
#
# Revision: 8
# Processed by: cddbd v1.5.2PL0 Copyright (c) Steve Scherf et al.
# Submitted via: EZCDAudioConverter 1.3.4.1
#
DISCID=21040903
DTITLE=Yello - Oh Yeah
DYEAR=1987
DGENRE=
TTITLE0=Oh Yeah [Dance Mix]
TTITLE1=La Habanera
TTITLE2=Oh Yeah [Indian Summer Version]
EXTD=
EXTT0=
EXTT1=
EXTT2=
PLAYORDER=
